<svg width="55" height="55" viewBox="0 0 55 55" fill="none" xmlns="http://www.w3.org/2000/svg">
<path d="M23.75 2.74241C26.0705 1.40267 28.9295 1.40267 31.25 2.74241L47.0657 11.8736C49.3862 13.2134 50.8157 15.6893 50.8157 18.3688V36.6312C50.8157 39.3107 49.3862 41.7866 47.0657 43.1264L31.25 52.2576C28.9295 53.5973 26.0705 53.5973 23.75 52.2576L7.9343 43.1264C5.61379 41.7866 4.1843 39.3107 4.1843 36.6312V18.3688C4.1843 15.6893 5.61379 13.2134 7.9343 11.8736L23.75 2.74241Z" stroke="url(#paint0_linear)"/>
<path fill-rule="evenodd" clip-rule="evenodd" d="M35.8641 16C31.7893 16 28.486 19.3033 28.486 23.378V31.2831H28.5183C28.4933 31.5546 28.4462 31.7886 28.3732 31.9993C28.256 32.3377 28.0754 32.6067 27.8292 32.8706C27.7727 32.9312 27.6778 32.9345 27.6172 32.878C27.5566 32.8215 27.5533 32.7266 27.6098 32.666C27.8345 32.4251 27.9892 32.1912 28.0897 31.9011C28.191 31.6087 28.2402 31.2502 28.2402 30.7561L26.3781 30.7561C22.3033 30.7561 19 34.0594 19 38.1341H28.4861C32.3836 38.1341 35.5754 35.1119 35.8456 31.2831H35.8641V30.7739C35.8641 30.768 35.8641 30.762 35.8641 30.7561H35.8641V16Z" fill="url(#paint1_linear)"/>
<defs>
<linearGradient id="paint0_linear" x1="27.5" y1="0" x2="27.5" y2="55" gradientUnits="userSpaceOnUse">
<stop stop-color="#FF0A78"/>
<stop offset="1" stop-color="#007EFF"/>
</linearGradient>
<linearGradient id="paint1_linear" x1="27.4321" y1="16" x2="27.4321" y2="38.1341" gradientUnits="userSpaceOnUse">
<stop stop-color="#FF0A78"/>
<stop offset="0.515625" stop-color="#B52C9F"/>
<stop offset="0.661458" stop-color="#5657D1"/>
<stop offset="1" stop-color="#007EFF"/>
</linearGradient>
</defs>
</svg>
