<svg
  width="28"
  height="28"
  viewBox="0 0 28 28"
  fill="#25282B"
  xmlns="http://www.w3.org/2000/svg"
>
<path
    d="M14.0302 2.33333C8.32161 2.3326 3.45531 6.47264 2.54132 12.1076C1.62734 17.7425 4.93555 23.2085 10.3517 25.0122C10.935 25.1172 11.1439 24.759 11.1439 24.451C11.1439 24.1745 11.1345 23.4418 11.131 22.4677C7.89352 23.1677 7.20986 20.9067 7.20986 20.9067C6.99672 20.2031 6.53853 19.5992 5.91836 19.2045C4.86836 18.4823 5.99886 18.4987 5.99886 18.4987C6.74631 18.6012 7.40417 19.044 7.78036 19.698C8.09878 20.277 8.63524 20.7048 9.27055 20.8864C9.90585 21.068 10.5874 20.9884 11.1637 20.6652C11.2178 20.0748 11.4805 19.5231 11.9045 19.1088C9.32152 18.816 6.60552 17.8173 6.60552 13.3572C6.59119 12.2036 7.01957 11.0883 7.80252 10.241C7.44827 9.23686 7.48998 8.13546 7.91919 7.161C7.91919 7.161 8.89569 6.84716 11.1182 8.35216C13.0243 7.8295 15.036 7.8295 16.9422 8.35216C19.1659 6.846 20.1412 7.161 20.1412 7.161C20.5724 8.135 20.6141 9.23717 20.2579 10.241C21.0437 11.0883 21.4717 12.2064 21.4525 13.3618C21.4525 17.8337 18.7342 18.816 16.1419 19.1042C16.7011 19.6759 16.9879 20.4602 16.9294 21.2578C16.9294 22.8142 16.9154 24.0695 16.9154 24.451C16.9154 24.7625 17.123 25.1242 17.7169 25.0098C23.1307 23.2031 26.4354 17.7368 25.5195 12.1034C24.6037 6.46992 19.7376 2.33202 14.0302 2.33333Z"
  />
</svg>
