<svg
  width="28"
  height="28"
  viewBox="0 0 28 28"
  fill="#25282B"
  xmlns="http://www.w3.org/2000/svg"
>
<path
    d="M15.1667 24.5H10.5V10.5H15.1667V12.8333C16.1614 11.5678 17.6699 10.8133 19.2792 10.7765C22.1732 10.7926 24.5084 13.1476 24.5 16.0417V24.5H19.8333V16.625C19.6467 15.3214 18.5287 14.3542 17.2118 14.357C16.6358 14.3752 16.0921 14.6274 15.7062 15.0554C15.3202 15.4834 15.1254 16.0502 15.1667 16.625V24.5ZM8.16667 24.5H3.5V10.5H8.16667V24.5ZM5.83333 8.16667C4.54467 8.16667 3.5 7.122 3.5 5.83333C3.5 4.54467 4.54467 3.5 5.83333 3.5C7.122 3.5 8.16667 4.54467 8.16667 5.83333C8.16667 6.45217 7.92083 7.04566 7.48325 7.48325C7.04566 7.92083 6.45217 8.16667 5.83333 8.16667Z"
  />
</svg>
