<svg
  width="15"
  height="15"
  viewBox="0 0 15 15"
  fill="none"
  xmlns="http://www.w3.org/2000/svg"
>
<path
    d="M13.4395 8.86862C13.195 9.92866 12.6712 10.9039 11.9224 11.6931C11.1737 12.4824 10.2274 13.0568 9.18166 13.3567C8.13596 13.6567 7.02902 13.6713 5.97579 13.3989C4.92255 13.1266 3.96141 12.5773 3.19217 11.8081C2.42292 11.0388 1.87361 10.0777 1.60128 9.02445C1.32894 7.97121 1.3435 6.86428 1.64345 5.81857C1.9434 4.77287 2.5178 3.82652 3.30701 3.07778C4.09623 2.32904 5.07148 1.80521 6.13152 1.56068C6.20891 1.54292 6.28954 1.5451 6.36586 1.56703C6.44218 1.58896 6.51167 1.62991 6.56782 1.68605C6.62398 1.74219 6.66495 1.81168 6.68689 1.88799C6.70883 1.9643 6.71103 2.04494 6.69328 2.12233C6.49783 2.97442 6.52202 3.8622 6.76359 4.70238C7.00515 5.54256 7.45616 6.30762 8.07433 6.92579C8.6925 7.54396 9.45755 7.99498 10.2977 8.23655C11.1379 8.47811 12.0257 8.50231 12.8778 8.30686C12.9552 8.2891 13.0358 8.2913 13.1121 8.31324C13.1885 8.33518 13.258 8.37615 13.3141 8.4323C13.3702 8.48845 13.4112 8.55795 13.4332 8.63427C13.4551 8.71059 13.4573 8.79123 13.4395 8.86862Z"
    fill="#FFDF5D"
  />
</svg>
