<svg width="81" height="70" viewBox="0 0 81 70" fill="none" xmlns="http://www.w3.org/2000/svg">
<path fill-rule="evenodd" clip-rule="evenodd" d="M57.9997 42C57.9997 57.464 45.4637 70 29.9997 70C17.839 70 7.48889 62.2475 3.62207 51.4152C4.67717 51.7938 5.81437 52 6.99974 52C8.81087 52 10.5095 51.5185 11.9747 50.6766C15.2059 57.3768 22.0629 62 29.9997 62C41.0454 62 49.9997 53.0457 49.9997 42C49.9997 30.9543 41.0454 22 29.9997 22C22.0629 22 15.2059 26.6232 11.9747 33.3234C10.5095 32.4815 8.81087 32 6.99974 32C5.81437 32 4.67717 32.2062 3.62207 32.5848C7.48889 21.7525 17.839 14 29.9997 14C45.4637 14 57.9997 26.536 57.9997 42Z" fill="#5C3BFE"/>
<circle cx="6" cy="42" r="6" fill="#5C3BFE"/>
<circle cx="53" cy="28" r="28" fill="url(#paint0_linear)"/>
<path d="M30.1307 29.5455V46.9957C30.1058 48.9595 29.2855 49.9787 27.7443 49.9787C26.228 49.9787 25.3828 48.9719 25.3082 47.0455H18.3977C18.3729 52.9119 22.3999 55.348 27.2969 55.348C32.9396 55.348 36.9169 51.9673 36.9418 46.9957V29.5455H30.1307Z" fill="#5C3BFE"/>
<defs>
<linearGradient id="paint0_linear" x1="53" y1="0" x2="53" y2="56" gradientUnits="userSpaceOnUse">
<stop stop-color="#5C3BFE" stop-opacity="0.5"/>
<stop offset="1" stop-color="#5C3BFE" stop-opacity="0"/>
</linearGradient>
</defs>
</svg>
